<svg width="24" height="24" viewBox="0 0 24 24" fill="none" xmlns="http://www.w3.org/2000/svg">
<path d="M11 15H13V17H11V15ZM11 7H13V13H11V7ZM12 2C6.46997 2 2 6.5 2 12C2 14.6522 3.05359 17.1957 4.92896 19.0711C5.85754 19.9997 6.9599 20.7363 8.17316 21.2388C9.38641 21.7413 10.6868 22 12 22C14.6522 22 17.1957 20.9464 19.071 19.0711C20.9464 17.1957 22 14.6522 22 12C22 10.6868 21.7413 9.38641 21.2388 8.17316C20.7362 6.9599 19.9996 5.85751 19.071 4.92892C18.1425 4.00034 17.0401 3.26373 15.8268 2.7612C14.6136 2.25867 13.3132 2 12 2ZM12 20C9.8783 20 7.84344 19.1572 6.34314 17.6569C4.84283 16.1566 4 14.1217 4 12C4 9.87827 4.84283 7.84344 6.34314 6.34314C7.84344 4.84283 9.8783 4 12 4C14.1217 4 16.1566 4.84283 17.6569 6.34314C19.1572 7.84344 20 9.87827 20 12C20 14.1217 19.1572 16.1566 17.6569 17.6569C16.1566 19.1572 14.1217 20 12 20Z" fill="#FFC524"/>
</svg>
