<svg width="19" height="19" viewBox="0 0 19 19" fill="none" xmlns="http://www.w3.org/2000/svg">
<path fill-rule="evenodd" clip-rule="evenodd" d="M7.5 0C5.56 0 3.84998 1.23999 3.22998 3.07999C1.35999 3.43997 0 5.09 0 7C0 9.20999 1.78998 11 4 11C5 11 6 10.5 7 9.5C8 8.5 8.19977 7 10 7H16V5C16 2.79001 14.21 1 12 1H10.32C9.5 0.350006 8.53003 0 7.5 0ZM9.5 3C9.03003 2.37 8.28998 2 7.5 2C6.12 2 5 3.12 5 4.5V5H4C2.89001 5 2 5.89999 2 7C2 8.10999 2.89001 9 4 9C4 9 5.67999 9.13 6.5 7.63C7.32001 6.13 8 5 10 5H14C14 3.89999 13.11 3 12 3H9.5Z" fill="#FFC524"/>
<path fill-rule="evenodd" clip-rule="evenodd" d="M4 19H15V17H18C18.55 17 19 16.55 19 16V9C19 8.45001 18.55 8 18 8H13V16C13 16 13 17 12 17C11 17 11 16 11 16V8H9C9 8 8.66669 8.66666 8 9.45566V16C8 16 8 17 7 17C6 17 6 16 6 16V11.2184C5.29407 11.6788 4.56677 12 4 12V19ZM17 10H15V15H17V10Z" fill="#334355"/>
</svg>
