<svg width="24" height="24" viewBox="0 0 24 24" fill="none" xmlns="http://www.w3.org/2000/svg">
<path d="M9.74885 20.8475C11.5289 20.1475 11.1388 18.2175 10.2388 16.9975C9.34883 15.7475 8.11885 14.8876 6.87886 14.0575C5.99885 13.4975 5.18886 12.7975 4.53886 11.9975C4.25886 11.6675 3.68886 11.0575 4.26884 10.9375C4.85884 10.8175 5.87886 11.3976 6.39885 11.6175C7.30885 11.9975 8.20884 12.4375 9.04884 12.9575L10.0589 11.2575C8.49885 10.2275 6.49885 9.31755 4.63887 9.04753C3.57887 8.88756 2.45884 9.10747 2.09886 10.2575C1.77885 11.2475 2.28886 12.2475 2.86885 13.0275C4.23884 14.8575 6.36885 15.7375 7.95884 17.3175C8.29884 17.6475 8.70884 18.0375 8.90886 18.4975C9.11885 18.9375 9.06886 18.9675 8.59886 18.9675C7.35887 18.9675 5.80885 17.9975 4.79884 17.3575L3.78886 19.0575C5.31886 19.9975 7.87886 21.4675 9.74885 20.8475ZM20.8389 5.24754C21.0589 5.02757 21.0589 4.66753 20.8389 4.4575L19.5389 3.15752C19.3289 2.94749 18.9689 2.94749 18.7589 3.15752L17.7388 4.17754L19.8189 6.25749M10.9989 10.9175V12.9975H13.0788L19.2289 6.84752L17.1488 4.7675L10.9989 10.9175Z" fill="#334355"/>
</svg>
