<svg width="11" height="20" viewBox="0 0 11 20" fill="none" xmlns="http://www.w3.org/2000/svg">
<path fill-rule="evenodd" clip-rule="evenodd" d="M9.59998 6.5L8.59998 6.2C8.29999 6.09999 7.99997 5.7 7.99997 5.3V1C7.99997 0.5 7.49997 0 6.99997 0H3.99997C3.39999 0 3 0.5 3 1V5.3C3 5.7 2.69998 6.10001 2.29999 6.3L1.39999 6.59999C0.600006 6.89999 0 7.60002 0 8.50002V10H2V8.40001L2.89999 8.10002C4.19998 7.70003 4.99997 6.60001 4.99997 5.3V5H5.99997V5.3C5.99997 6.60001 6.79996 7.70003 7.99997 8.10002L8.99997 8.40001V10H11V8.40001C11 7.60001 10.5 6.8 9.59998 6.5ZM5.99997 2H4.99997V3H5.99997V2Z" fill="#334355"/>
<path d="M0 18C0 19.1 0.899994 20 2 20H8.99997C10.1 20 11 19.1 11 18V16H8.99997V18H2V16H0V18Z" fill="#334355"/>
<path d="M0 11V15H11V11H0Z" fill="#FFC524"/>
</svg>
