<svg width="22" height="21" viewBox="0 0 22 21" fill="none" xmlns="http://www.w3.org/2000/svg">
<path d="M0 15.9541H7V17.9541H0V15.9541Z" fill="white"/>
<path d="M0 11.9541H7V13.9541H0V11.9541Z" fill="white"/>
<path d="M0 8H8V10H0V8Z" fill="white"/>
<path d="M0 4H14V6H0V4Z" fill="white"/>
<path d="M0 0H14V2H0V0Z" fill="white"/>
<path fill-rule="evenodd" clip-rule="evenodd" d="M14.8917 6.9541C11.0317 6.9541 7.89172 10.0841 7.89172 13.9541C7.89172 17.8241 11.0217 20.9541 14.8917 20.9541C18.7517 20.9541 21.8917 17.8241 21.8917 13.9541C21.8917 10.0841 18.7617 6.9541 14.8917 6.9541ZM19.7417 13.9541C19.7417 11.2741 17.5617 9.10406 14.8917 9.10406C12.2117 9.10406 10.0417 11.2741 10.0417 13.9541C10.0417 16.6341 12.2117 18.8041 14.8917 18.8041C17.5717 18.8041 19.7417 16.6341 19.7417 13.9541Z" fill="white"/>
<path d="M13.8917 10.9541V14.644L17.0817 16.4841L17.8317 15.1841L15.3917 13.774V10.9541H13.8917Z" fill="#FFC524"/>
</svg>
