<svg width="24" height="24" viewBox="0 0 24 24" fill="none" xmlns="http://www.w3.org/2000/svg">
<path d="M9.5 3C11.2239 3 12.8772 3.68475 14.0962 4.90375C15.3152 6.12274 16 7.77612 16 9.5C16 11.11 15.41 12.59 14.44 13.73L14.71 14H15.5L20.5 19L19 20.5L14 15.5V14.71L13.73 14.4399C12.59 15.4099 11.11 16 9.5 16C7.77612 16 6.1228 15.3152 4.90381 14.0962C3.68481 12.8772 3 11.2239 3 9.5C3 7.77612 3.68481 6.12274 4.90381 4.90375C6.1228 3.68475 7.77612 3 9.5 3ZM9.5 5C7 5 5 7 5 9.5C5 12 7 14 9.5 14C12 14 14 12 14 9.5C14 7 12 5 9.5 5Z" fill="#334355"/>
</svg>
