<svg width="18" height="20" viewBox="0 0 18 20" fill="none" xmlns="http://www.w3.org/2000/svg">
<path fill-rule="evenodd" clip-rule="evenodd" d="M5.88159 11.1414C5.95917 11.343 6.04251 11.5464 6.13193 11.7489C6.29153 12.1103 6.4704 12.469 6.67001 12.81C6.58606 12.9884 6.49588 13.1623 6.40079 13.3316C6.29037 13.528 6.17334 13.7182 6.05164 13.9016C5.66547 14.4835 5.23248 14.9977 4.81674 15.4316C4.29877 15.9722 3.80746 16.3883 3.46671 16.6556C3.18011 16.8804 3 17 3 17C1.94791 15.9479 1.24173 14.4116 0.808655 13.1916C0.639648 12.7154 0.512238 12.2875 0.422089 11.9553C0.304138 11.5206 0.25 11.25 0.25 11.25L0.292847 11.2446C0.764648 11.1835 1.21545 11.0906 1.6467 10.9705C2.30035 10.7885 2.90958 10.5439 3.48077 10.2523C3.71594 10.1322 3.9447 10.0042 4.16742 9.86929C4.54477 9.64079 4.90488 9.39261 5.25 9.13C5.2905 9.29041 5.33624 9.46309 5.38754 9.6451C5.51593 10.1008 5.67905 10.6151 5.88159 11.1414ZM4.13428 12.1605C3.69922 12.37 3.24319 12.558 2.76471 12.7188C2.93466 13.1763 3.1326 13.6356 3.35602 14.0652C3.72052 13.6865 4.08569 13.2507 4.40018 12.7731C4.30569 12.5684 4.21713 12.3635 4.13428 12.1605Z" fill="white"/>
<path fill-rule="evenodd" clip-rule="evenodd" d="M17.7072 11.2446L17.75 11.25C17.75 11.25 17.6959 11.5206 17.5779 11.9553C17.4878 12.2875 17.3604 12.7154 17.1913 13.1916C16.7583 14.4116 16.0521 15.9479 15 17C15 17 14.8199 16.8804 14.5333 16.6556C14.1925 16.3883 13.7012 15.9722 13.1833 15.4316C12.7675 14.9977 12.3345 14.4835 11.9484 13.9016C11.8267 13.7182 11.7096 13.528 11.5992 13.3316C11.5041 13.1623 11.4139 12.9884 11.33 12.81C11.5296 12.469 11.7085 12.1103 11.8681 11.7489C11.9575 11.5464 12.0408 11.343 12.1184 11.1414C12.321 10.6151 12.4841 10.1008 12.6125 9.6451C12.6638 9.46309 12.7095 9.29041 12.75 9.13C13.0951 9.39261 13.4553 9.64079 13.8326 9.86929C14.0553 10.0042 14.2841 10.1322 14.5192 10.2523C15.0904 10.5439 15.6996 10.7885 16.3533 10.9705C16.7845 11.0906 17.2354 11.1835 17.7072 11.2446ZM15.2353 12.7188C14.7568 12.558 14.3008 12.37 13.8657 12.1605C13.7829 12.3635 13.6943 12.5684 13.5998 12.7731C13.9143 13.2507 14.2795 13.6865 14.644 14.0652C14.8674 13.6356 15.0653 13.1763 15.2353 12.7188Z" fill="white"/>
<path fill-rule="evenodd" clip-rule="evenodd" d="M11.9919 17.0727C10.8374 18.6475 9 19.75 9 19.75C9 19.75 7.1626 18.6475 6.00809 17.0727C5.81595 16.8106 5.6427 16.5354 5.5 16.25C5.5 16.25 5.80948 15.9916 6.21365 15.5172C6.39688 15.3021 6.59955 15.0426 6.80167 14.7427C6.99036 14.4626 7.17862 14.1473 7.35001 13.8C7.5668 14.0537 7.79849 14.284 8.048 14.4791C8.18802 14.5885 8.3335 14.6869 8.4852 14.7721C8.64441 14.8615 8.81049 14.9365 8.9838 14.9946L9 15L9.0162 14.9946C9.18951 14.9365 9.3555 14.8616 9.5148 14.7721C9.66641 14.6869 9.81198 14.5885 9.952 14.4791C10.2015 14.284 10.4332 14.0537 10.65 13.8C10.8214 14.1473 11.0096 14.4626 11.1983 14.7427C11.4004 15.0426 11.6031 15.3021 11.7863 15.5172C12.1905 15.9916 12.5 16.25 12.5 16.25C12.3573 16.5354 12.1841 16.8106 11.9919 17.0727ZM9.49319 13.6038C9.6221 13.4884 9.7695 13.3478 9.92679 13.182C10.138 12.9596 10.3671 12.6919 10.5936 12.3789C10.8966 11.9604 11.195 11.4609 11.4396 10.8807C11.658 10.3628 11.8336 9.78049 11.9315 9.13409C11.9417 9.06689 11.951 8.99901 11.9595 8.9304C11.9768 8.78981 11.9904 8.64639 12 8.5C11.6664 8.1931 11.3606 7.87727 11.0827 7.56406C10.7482 7.18718 10.454 6.81407 10.2001 6.4648C9.82642 5.95065 9.53998 5.48813 9.34079 5.14119C9.11359 4.74538 9 4.5 9 4.5C9 4.5 8.88641 4.74538 8.65921 5.14119C8.46002 5.48813 8.17358 5.95065 7.7999 6.4648C7.54599 6.81407 7.2518 7.18718 6.91733 7.56406C6.63937 7.87727 6.33359 8.1931 6 8.5C6.00961 8.64639 6.02322 8.78981 6.04056 8.9304C6.04901 8.99901 6.05835 9.06689 6.06851 9.13409C6.16638 9.78049 6.34198 10.3628 6.56039 10.8807C6.80505 11.4609 7.10339 11.9604 7.4064 12.3789C7.6329 12.6919 7.862 12.9596 8.07321 13.182C8.2305 13.3478 8.3779 13.4884 8.50681 13.6038C8.52362 13.6189 8.5401 13.6335 8.5563 13.6477C8.8237 13.8824 9 14 9 14C9 14 9.1763 13.8824 9.4437 13.6477C9.4599 13.6335 9.47638 13.6189 9.49319 13.6038ZM9.88211 9.2151C9.70132 10.0135 9.3606 10.6633 9 11.1694C8.6394 10.6633 8.29858 10.0135 8.11789 9.21519C8.44247 8.8694 8.73651 8.52429 9 8.1913C9.26349 8.52429 9.5575 8.8694 9.88211 9.2151Z" fill="white"/>
<path fill-rule="evenodd" clip-rule="evenodd" d="M10.0507 3.30637C9.90479 2.89836 9.78412 2.46732 9.69321 2.01212C9.6221 1.65616 9.56927 1.28542 9.53699 0.899368C9.5127 0.608353 9.5 0.30864 9.5 0C9.5 0 9.88861 0 10.4996 0.0977631C10.7905 0.144287 11.1317 0.212982 11.5055 0.314346C13.7365 0.91954 17.1249 2.68983 17.8573 7.86841C17.9195 8.3084 17.9626 8.7731 17.9841 9.2637L17.9876 9.349C17.9958 9.5611 18 9.77811 18 10C18 10 17.9684 9.9926 17.9091 9.97681C17.6603 9.91071 16.9233 9.6978 15.9824 9.27119C15.3874 9.00139 14.7108 8.6461 14.0247 8.18851C13.903 8.1073 13.781 8.0229 13.6591 7.93521C13.4361 7.77477 13.2134 7.60323 12.9936 7.42003C12.4695 6.98329 11.9612 6.48024 11.5021 5.90303C11.0351 5.31593 10.619 4.65201 10.2887 3.90324C10.2035 3.70999 10.1239 3.51109 10.0507 3.30637ZM11.9106 2.56221C12.5054 4.28429 13.671 5.49614 14.9034 6.36606C15.1355 6.52992 15.3685 6.68019 15.5983 6.8176C14.9917 4.70239 13.7996 3.59953 12.736 2.97388C12.4601 2.81161 12.1823 2.6758 11.9106 2.56221Z" fill="#FFC524"/>
<path fill-rule="evenodd" clip-rule="evenodd" d="M4.34091 7.93521C4.21899 8.0229 4.09698 8.1073 3.97528 8.18851C3.28915 8.6461 2.61264 9.00139 2.01761 9.27119C1.07672 9.6978 0.339661 9.91071 0.0908508 9.97681C0.0315857 9.9926 0 10 0 10C0 9.77811 0.00418091 9.5611 0.0123596 9.349L0.0158997 9.2637C0.0374146 8.7731 0.0804749 8.3084 0.1427 7.86841C0.875061 2.68983 4.26346 0.91954 6.49454 0.314346C6.86826 0.212982 7.2095 0.144287 7.5004 0.0977631C8.11139 0 8.5 0 8.5 0C8.5 0.30864 8.4873 0.608353 8.46301 0.899368C8.43073 1.28542 8.3779 1.65616 8.30679 2.01212C8.21588 2.46732 8.09521 2.89836 7.94931 3.30637C7.8761 3.51109 7.79651 3.71011 7.7113 3.90337C7.38101 4.65213 6.96484 5.31593 6.49789 5.90303C6.03879 6.48024 5.53052 6.98329 5.00641 7.42003C4.78656 7.60323 4.5639 7.77477 4.34091 7.93521ZM2.40167 6.8176C2.6315 6.68019 2.86447 6.52992 3.09662 6.36606C4.32901 5.49614 5.49463 4.28429 6.08939 2.56221C5.81769 2.6758 5.53989 2.81161 5.26404 2.97388C4.20041 3.59953 3.00827 4.70239 2.40167 6.8176Z" fill="#FFC524"/>
</svg>
